#!OML:ASF H:\Terrain\Walking\May29\JustinRory\rory.ASF
:FULLY-SPECIFIED
:DEGREES
1354
root 12.5114 18.6903 22.9068 -174.056 21.0777 177.082
lowerback 3.25684 1.60833 -2.11916
upperback 2.3638 2.1792 -0.850378
thorax 0.555404 1.10768 0.255966
lowerneck -9.54858 2.72624 2.2977
upperneck 11.9189 4.05196 -4.13598
head 5.28768 1.86394 -1.35978
rclavicle 3.79679e-014 -1.78906e-015
rhumerus -39.9921 20.4725 -91.7142
rradius 98.8096
rwrist 14.304
rhand -15.1598 46.0671
rfingers 7.12502
rthumb 11.0106 16.3759
lclavicle 3.79679e-014 -1.78906e-015
lhumerus -41.8497 -20.5467 96.6011
lradius 92.3035
lwrist -9.99259
lhand -11.2297 12.7024
lfingers 7.12502
lthumb 14.7993 42.154
rfemur 0.286171 5.26183 19.0193
rtibia 20.0278
rfoot -20.9024 -24.1995
rtoes 13.6388
lfemur -28.0277 -3.19504 -13.2969
ltibia 20.5214
lfoot -14.7085 13.4559
ltoes -12.4102
1355
root 12.5065 18.6882 22.9326 -174.159 21.0505 176.74
lowerback 3.1775 1.51752 -2.304
upperback 2.39578 2.06021 -0.923582
thorax 0.631573 1.04698 0.290702
lowerneck -9.73593 2.72976 1.95861
upperneck 11.9841 4.07495 -3.91526
head 5.32919 1.8709 -1.23138
rclavicle -1.39895e-014 -7.25564e-015
rhumerus -40.0559 19.6499 -91.1504
rradius 98.2967
rwrist 14.3045
rhand -14.0689 45.1968
rfingers 7.12502
rthumb 12.0626 15.5645
lclavicle -1.39895e-014 -7.25564e-015
lhumerus -42.272 -19.8415 96.5007
lradius 92.1281
lwrist -9.84491
lhand -11.2527 12.2887
lfingers 7.12502
lthumb 14.7771 41.7419
rfemur 0.358623 5.14019 18.6455
rtibia 19.6916
rfoot -20.7607 -24.2582
rtoes 13.2625
lfemur -28.224 -3.65599 -13.4549
ltibia 20.5499
lfoot -14.5497 13.8793
ltoes -10.4038
1356
root 12.4993 18.6864 22.9571 -174.075 20.9922 176.499
lowerback 3.01327 1.35962 -2.40306
upperback 2.3296 1.84738 -0.932405
thorax 0.65731 0.937844 0.34625
lowerneck -9.79901 2.77073 1.48416
upperneck 12.0535 4.16441 -3.61681
head 5.34825 1.91249 -1.05311
rclavicle -1.56046e-014 1.17283e-014
rhumerus -40.2224 19.1917 -90.6515
rradius 97.6121
rwrist 14.304
rhand -13.7933 44.8055
rfingers 7.12502
rthumb 12.3284 15.1889
lclavicle -1.56046e-014 1.17283e-014
lhumerus -42.9385 -18.9419 96.4868
lradius 91.9648
lwrist -9.76676
lhand -11.9569 12.8694
lfingers 7.12502
lthumb 14.0986 42.3711
rfemur 0.303277 5.08865 18.3596
rtibia 19.2924
rfoot -20.5409 -24.2418
rtoes 12.8
lfemur -28.5433 -3.87087 -13.6492
ltibia 20.696
lfoot -14.0966 14.1628
ltoes -10.2185
1357
root 12.4999 18.6995 23.003 -173.725 21.0947 176.6
lowerback 2.96052 1.33192 -2.40032
upperback 2.07896 1.79242 -0.83186
thorax 0.427376 0.907599 0.446399
lowerneck -9.66283 2.75128 1.34111
upperneck 12.1216 4.18216 -3.6843
head 5.34556 1.91483 -1.05071
rclavicle -2.33572e-015 1.25234e-014
rhumerus -40.5821 18.5888 -90.1845
rradius 96.871
rwrist 14.3572
rhand -13.4297 44.5237
rfingers 7.12502
rthumb 12.679 14.9286
lclavicle -2.33572e-015 1.25234e-014
lhumerus -43.4218 -18.4799 96.5345
lradius 91.6725
lwrist -9.65025
lhand -11.6823 13.7797
lfingers 7.12502
lthumb 14.3631 43.2628
rfemur -0.0926585 5.3519 18.4825
rtibia 19.1383
rfoot -20.4422 -24.2441
rtoes 13.0432
lfemur -28.9714 -3.79537 -13.3997
ltibia 20.8099
lfoot -13.5787 14.2376
ltoes -8.36649
1358
root 12.4974 18.6991 23.0495 -173.324 21.205 176.694
lowerback 2.89082 1.38017 -2.3733
upperback 1.82506 1.84219 -0.791508
thorax 0.20384 0.931239 0.468924
lowerneck -9.70225 2.77584 1.51623
upperneck 12.2861 4.23728 -3.92016
head 5.41377 1.93453 -1.14676
rclavicle 5.66536e-015 3.57812e-015
rhumerus -40.9026 17.7137 -89.7183
rradius 96.0824
rwrist 14.3371
rhand -13.1729 44.4918
rfingers 7.12502
rthumb 12.9265 14.9122
lclavicle 5.66536e-015 3.57812e-015
lhumerus -43.788 -18.0169 96.5171
lradius 91.2473
lwrist -9.68516
lhand -10.7291 13.9263
lfingers 7.12502
lthumb 15.2814 43.3418
rfemur -0.632031 5.6315 18.5904
rtibia 19.1491
rfoot -20.3676 -24.13
rtoes 13.6972
lfemur -29.4213 -3.61871 -13.1949
ltibia 20.933
lfoot -13.1328 13.9771
ltoes -4.54673
1359
root 12.4901 18.6888 23.0857 -173.271 21.2633 176.431
lowerback 2.86358 1.39167 -2.56492
upperback 1.79084 1.85448 -0.890862
thorax 0.181238 0.937378 0.474082
lowerneck -10.0012 2.85222 1.73387
upperneck 12.434 4.33014 -4.06363
head 5.52115 1.97341 -1.21488
rclavicle 1.39646e-014 4.96962e-015
rhumerus -40.9682 16.8756 -89.2336
rradius 95.207
rwrist 14.1217
rhand -13.4441 44.685
rfingers 7.12502
rthumb 12.665 15.089
lclavicle 1.39646e-014 4.96962e-015
lhumerus -44.0413 -17.431 96.3742
lradius 90.8613
lwrist -9.88731
lhand -10.7073 13.7066
lfingers 7.12502
lthumb 15.3024 43.1204
rfemur -0.9413 5.72517 18.3031
rtibia 19.1975
rfoot -20.1634 -23.8356
rtoes 13.9437
lfemur -29.6585 -3.47342 -13.4811
ltibia 21.122
lfoot -12.5265 13.6088
ltoes -2.78998
